{"title":"Krewella - Party Monster [Music Video] 720p [Sbyky]","uid":9949721,"size":52011744,"categoryP":"video","categoryS":"music_videos","magnet":"?xt=urn:btih:9012f0c890d0dd5d02f7c6f1a908a92adf952ea9&amp;dn=Krewella+-+Party+Monster+%5BMusic+Video%5D+720p+%5BSbyky%5D&amp;tr=udp%3A%2F%2Ftracker.openbittorrent.com%3A80&amp;tr=udp%3A%2F%2Fopen.demonii.com%3A1337&amp;tr=udp%3A%2F%2Ftracker.coppersurfer.tk%3A6969&amp;tr=udp%3A%2F%2Fexodus.desync.com%3A6969","seeders":2,"leechers":0,"uploader":"Sbyky","files":1,"time":1397378915,"description":"\n\nGeneral\nComplete name                            : Krewella - Party Monster [Music Video] 720p [Sbyky].MP4\nFormat                                   : MPEG-4\nFormat profile                           : Base Media\nCodec ID                                 : isom\nFile size                                : 49.6 MiB\nDuration                                 : 3mn 54s\nOverall bit rate mode                    : Variable\nOverall bit rate                         : 1 771 Kbps\nEncoded date                             : UTC 2014-03-25 20:25:59\nTagged date                              : UTC 2014-03-25 20:25:59\n\nVideo\nID                                       : 1\nFormat                                   : AVC\nFormat/Info                              : Advanced Video Codec\nFormat profile                           : &lt;a class=&quot;__cf_email__&quot; href=&quot;/cdn-cgi/l/email-protection&quot; data-cfemail=&quot;f1bc90989fb1bdc2dfc0&quot;&gt;[email&amp;#160;protected]&lt;/a&gt;&lt;script cf-hash='f9e31' type=&quot;text/javascript&quot;&gt;\n/* &lt;![CDATA[ */!function(){try{var t=&quot;currentScript&quot;in document?document.currentScript:function(){for(var t=document.getElementsByTagName(&quot;script&quot;),e=t.length;e--;)if(t[e].getAttribute(&quot;cf-hash&quot;))return t[e]}();if(t&amp;&amp;t.previousSibling){var e,r,n,i,c=t.previousSibling,a=c.getAttribute(&quot;data-cfemail&quot;);if(a){for(e=&quot;&quot;,r=parseInt(a.substr(0,2),16),n=2;a.length-n;n+=2)i=parseInt(a.substr(n,2),16)^r,e+=String.fromCharCode(i);e=document.createTextNode(e),c.parentNode.replaceChild(e,c)}}}catch(u){}}();/* ]]&gt; */&lt;/script&gt;\nFormat settings, CABAC                   : Yes\nFormat settings, ReFrames                : 3 frames\nCodec ID                                 : avc1\nCodec ID/Info                            : Advanced Video Coding\nDuration                                 : 3mn 54s\nBit rate                                 : 1 643 Kbps\nWidth                                    : 1 280 pixels\nHeight                                   : 720 pixels\nDisplay aspect ratio                     : 16:9\nFrame rate mode                          : Variable\nFrame rate                               : 23.976 fps\nMinimum frame rate                       : 23.974 fps\nMaximum frame rate                       : 24.516 fps\nColor space                              : YUV\nChroma subsampling                       : 4:2:0\nBit depth                                : 8 bits\nScan type                                : Progressive\nBits/(Pixel*Frame)                       : 0.074\nStream size                              : 46.0 MiB (93%)\nEncoded date                             : UTC 2014-03-25 20:25:59\nTagged date                              : UTC 2014-03-25 20:25:59\n\nAudio\nID                                       : 2\nFormat                                   : AAC\nFormat/Info                              : Advanced Audio Codec\nFormat profile                           : LC\nCodec ID                                 : 40\nDuration                                 : 3mn 54s\nBit rate mode                            : Variable\nBit rate                                 : 126 Kbps\nChannel(s)                               : 2 channels\nChannel positions                        : Front: L R\nSampling rate                            : 44.1 KHz\nCompression mode                         : Lossy\nStream size                              : 3.52 MiB (7%)\nEncoded date                             : UTC 2014-03-25 20:25:50\nTagged date                              : UTC 2014-03-25 20:25:50\n\nShared By Sbyky\n","torrent":{"xt":"urn:btih:9012f0c890d0dd5d02f7c6f1a908a92adf952ea9","amp;dn":"Krewella+-+Party+Monster+%5BMusic+Video%5D+720p+%5BSbyky%5D","amp;tr":["udp%3A%2F%2Ftracker.openbittorrent.com%3A80","udp%3A%2F%2Fopen.demonii.com%3A1337","udp%3A%2F%2Ftracker.coppersurfer.tk%3A6969","udp%3A%2F%2Fexodus.desync.com%3A6969"],"infoHash":"9012f0c890d0dd5d02f7c6f1a908a92adf952ea9","infoHashBuffer":{"type":"Buffer","data":[144,18,240,200,144,208,221,93,2,247,198,241,169,8,169,42,223,149,46,169]},"announce":[],"urlList":[]}}